<svg id="Layer_1" enable-background="new 0 0 512.003 512.003" height="512" viewBox="0 0 512.003 512.003" width="512" xmlns="http://www.w3.org/2000/svg"><path d="m384.003 159.986c0 91.383-103.358 143.411-176.63 91.48-60.257-42.551-63.758-131.107-6.27-178.19 73.503-60.143 182.9-6.717 182.9 86.71z" fill="#a2d0ff"/><path d="m358.793 89.196c-72.88-59.543-182.79-7.579-182.79 86.79 0 26.86 9.45 51.51 25.22 70.8-54.815-44.728-55.065-128.51-.12-173.51 47.526-38.888 118.219-32.433 157.69 15.92z" fill="#b9dcff"/><path d="m372.603 110.696c-24.497 10.42-50.451 17.708-76.185 24.922-25.205 7.065-52.385-.385-70.144-19.616-11.099-12.02-24.798-21.601-40.211-27.846-43.019 51.4-32.54 132.086 29.186 168.404 15.655 9.22 33.431 14.54 51.984 15.316 83.71 4.236 142.965-84.599 105.37-161.18z" fill="#8bc4ff"/><path d="m224.003 175.986c0 65.72-75.407 103.614-128.04 63.96-22.85-17.176-34.935-45.165-31.34-74.01 6.657-53.043 62.702-84.516 111.29-63.33 28.757 12.53 48.09 41.043 48.09 73.38z" fill="#a2d0ff"/><path d="m207.963 127.946c-13.531-10.135-30.148-15.96-47.96-15.96-66.466 0-102.992 76.024-64.04 127.96-19.41-14.59-31.96-37.81-31.96-63.96 0-44.18 35.82-80 80-80 25.77 0 49.137 12.238 63.96 31.96z" fill="#b9dcff"/><path d="m224.003 175.986c0 65.72-75.407 103.614-128.04 63.96-22.85-17.176-34.935-45.165-31.34-74.01 6.84-1.52 14.57-1.45 21.01-2.22 70.56-8.42 90.424-10.054 131.26-20.74 4.57 10.06 7.11 21.24 7.11 33.01z" fill="#8bc4ff"/><path d="m496.003 335.986c-16.94 10.42-34.84 19.71-53.37 27.99l-89.26 31.65c-96.788 26.821-204.883 36.36-305.37 36.36l-32-256c65.338 5.966 172.884 1.152 262.64-19.12 63.86-14.43 129.72-38.19 185.36-76.88z" fill="#a2d0ff"/><path d="m496.003 335.986c-16.94 10.42-34.84 19.71-53.37 27.99l-89.26 31.65c-33.38 9.25-67.14 16.16-99.73 21.32 5.13-12.91 8.64-26.62 11.76-36.21 35.139-108.248 16.23-190.155 13.24-223.87 63.86-14.43 129.72-38.19 185.36-76.88z" fill="#8bc4ff"/><path d="m54.853 431.976c-2.39.01-4.67.01-6.85.01l-32-256s47.97 4.38 116.51.6c1.683 17.107-13.648 53.661-77.66 255.39z" fill="#b9dcff"/><path d="m464.003 407.986c0 37.777-36.596 64.61-72.6 53.5-22.764-7.035-39.4-28.303-39.4-53.5 0-41.913 44.17-68.457 80.87-50.18 18.464 9.17 31.13 28.209 31.13 50.18z" fill="#a2d0ff"/><path d="m464.003 407.986c0 37.777-36.596 64.61-72.6 53.5l41.47-103.68c18.45 9.15 31.13 28.18 31.13 50.18z" fill="#8bc4ff"/><path d="m454.783 377.216c-8.766-5.844-19.471-9.23-30.78-9.23-45.026 0-70.945 50.195-46.79 86.78-15.19-10.01-25.21-27.22-25.21-46.78 0-30.93 25.07-56 56-56 19.357 0 36.723 9.903 46.78 25.23z" fill="#b9dcff"/><g fill="#2e58ff"><path d="m511.879 334.001-32-256c-1.489-11.92-15.142-18.015-25.011-11.151-21.179 14.728-43.97 27.167-67.481 37.697-41.373-86.389-160.188-98.303-217.915-21.162-32.244-8.814-68.029-.604-93.352 24.719-6.248 6.248-6.248 16.379 0 22.627s16.378 6.248 22.627 0c25.011-25.011 65.495-25.014 90.509 0 6.246 6.247 16.378 6.25 22.627 0 6.249-6.248 6.249-16.379 0-22.627-3.965-3.965-8.217-7.541-12.707-10.708 43.998-51.519 127.693-42.183 158.562 19.327-64.376 24.145-131.358 35.446-183.91 40.651-87.828 8.698-155.701 2.738-156.373 2.678-10.115-.944-18.6 7.757-17.33 17.918l32 256c1.001 8.007 7.807 14.016 15.876 14.016 107.869 0 204.793-10.563 288.531-31.404 4.264 35.661 34.678 63.404 71.469 63.404 56.768 0 91.137-63.004 60.704-110.643 12.513-6.234 24.464-12.832 35.679-19.729 5.343-3.285 8.273-9.39 7.495-15.613zm-103.876 113.985c-22.056 0-40-17.944-40-40s17.944-40 40-40 40 17.944 40 40-17.945 40-40 40zm36.07-102.274c-38.358-22.305-87.631-4.691-103.39 36.774-80.238 21.279-173.829 32.515-278.563 33.438l-27.842-222.74c135.177 6.432 300.404-15.344 417.015-85.893l27.539 220.314c-10.955 6.354-22.596 12.411-34.759 18.107z"/><path d="m263.211 192.055-55.149 9.725c-8.702 1.534-14.513 9.833-12.979 18.535 3.377 19.15 24.4 138.377 27.784 157.569 1.537 8.717 9.85 14.513 18.535 12.979 8.702-1.534 14.513-9.833 12.979-18.535l-2.779-15.758 31.514-5.557c8.702-1.534 14.513-9.833 12.979-18.535-1.533-8.701-9.83-14.515-18.535-12.979l-31.514 5.557-2.778-15.757 39.393-6.946c30.409-5.361 50.786-34.464 45.425-64.874-5.364-30.409-34.474-50.784-64.875-45.424zm13.892 78.784-39.393 6.946-8.335-47.271 39.392-6.946c13.035-2.292 25.506 6.437 27.804 19.468 2.298 13.033-6.435 25.506-19.468 27.803z"/></g></svg>